HIERARCHY
ROOT Hips
{
    OFFSET 0.000000 0.000000 0.000000
    CHANNELS 6 Xposition Yposition Zposition Zrotation Xrotation Yrotation
    JOINT Spine
    {
        OFFSET -0.000000 14.517291 0.000000
        CHANNELS 3 Zrotation Xrotation Yrotation
        JOINT Spine1
        {
            OFFSET -0.000000 37.558300 0.000000
            CHANNELS 3 Zrotation Xrotation Yrotation
            JOINT Neck
            {
                OFFSET -0.000000 37.404057 3.400369
                CHANNELS 3 Zrotation Xrotation Yrotation
                JOINT Head
                {
                    OFFSET -0.000000 24.785618 -3.540803
                    CHANNELS 3 Zrotation Xrotation Yrotation
                    End Site
                    {
                        OFFSET -0.000000 35.408028 0.000000
                    }
                }
            }
            JOINT LeftShoulder
            {
                OFFSET 6.992933 33.973492 -0.192664
                CHANNELS 3 Zrotation Xrotation Yrotation
                JOINT LeftArm
                {
                    OFFSET 21.527611 0.000000 0.000000
                    CHANNELS 3 Zrotation Xrotation Yrotation
                    JOINT LeftForeArm
                    {
                        OFFSET 56.353916 0.000000 0.000000
                        CHANNELS 3 Zrotation Xrotation Yrotation
                        JOINT LeftHand
                        {
                            OFFSET 47.774071 0.000000 0.000000
                            CHANNELS 3 Zrotation Xrotation Yrotation
                            End Site
                            {
                                OFFSET 26.556021 0.000000 0.000000
                            }
                        }
                    }
                }
            }
            JOINT RightShoulder
            {
                OFFSET -7.065357 33.973492 -0.192664
                CHANNELS 3 Zrotation Xrotation Yrotation
                JOINT RightArm
                {
                    OFFSET -21.527611 0.000000 0.000000
                    CHANNELS 3 Zrotation Xrotation Yrotation
                    JOINT RightForeArm
                    {
                        OFFSET -56.353916 0.000000 0.000000
                        CHANNELS 3 Zrotation Xrotation Yrotation
                        JOINT RightHand
                        {
                            OFFSET -47.774071 0.000000 0.000000
                            CHANNELS 3 Zrotation Xrotation Yrotation
                            End Site
                            {
                                OFFSET -26.556021 0.000000 0.000000
                            }
                        }
                    }
                }
            }
        }
    }
    JOINT LeftUpLeg
    {
        OFFSET 17.704014 0.000000 0.000000
        CHANNELS 3 Zrotation Xrotation Yrotation
        JOINT LeftLeg
        {
            OFFSET -0.000000 -81.181816 0.000000
            CHANNELS 3 Zrotation Xrotation Yrotation
            JOINT LeftFoot
            {
                OFFSET -0.000000 -62.821102 0.000000
                CHANNELS 3 Zrotation Xrotation Yrotation
                JOINT LeftToeBase
                {
                    OFFSET -0.000000 -11.507608 26.556021
                    CHANNELS 3 Zrotation Xrotation Yrotation
                    End Site
                    {
                        OFFSET -0.000000 0.000000 7.081605
                    }
                }
            }
        }
    }
    JOINT RightUpLeg
    {
        OFFSET -17.704014 0.000000 0.000000
        CHANNELS 3 Zrotation Xrotation Yrotation
        JOINT RightLeg
        {
            OFFSET -0.000000 -81.181816 0.000000
            CHANNELS 3 Zrotation Xrotation Yrotation
            JOINT RightFoot
            {
                OFFSET -0.000000 -62.821102 0.000000
                CHANNELS 3 Zrotation Xrotation Yrotation
                JOINT RightToeBase
                {
                    OFFSET -0.000000 -11.507608 26.556021
                    CHANNELS 3 Zrotation Xrotation Yrotation
                    End Site
                    {
                        OFFSET -0.000000 0.000000 7.081605
                    }
                }
            }
        }
    }
}
MOTION
Frames:    4
Frame Time:    0.008333
25.751078    156.240219    -35.778522    1.267606    -0.749740    -44.515030    0.155743    -1.277068    0.015560    2.428375    1.758007    -0.030660    16.146755    -2.046770    15.473592    -8.998622    9.422985    12.877739    10.250336    0.873337    -19.463573    -11.100880    -18.151794    -45.111580    14.149201    -39.132633    -20.736727    -27.840618    -27.423462    -43.777348    -2.041514    4.963738    -2.277466    37.025528    7.318873    68.517159    -11.020161    -34.003937    67.972580    19.890766    -22.716305    30.050888    17.104517    -19.281166    4.231964    -11.393761    17.750505    -3.672925    -8.490260    0.560168    38.049942    0.000000    0.000000    0.000000    -15.820039    0.943419    -6.582146    6.831572    27.928011    -2.561356    5.296605    -21.444782    -16.980534    0.000000    0.000000    0.000000    
25.729870    156.242828    -35.771267    1.276253    -0.751919    -44.527130    0.162121    -1.288609    0.026300    2.425979    1.764782    -0.020431    16.155449    -2.055597    15.470265    -9.009671    9.427109    12.871177    10.245280    0.867652    -19.462250    -11.096744    -18.140390    -45.121586    14.147274    -39.140217    -20.744282    -27.880957    -27.410336    -43.799984    -2.090586    4.969994    -2.216976    36.973492    7.379735    68.697945    -10.570534    -33.747936    69.029922    19.843319    -22.615128    29.933399    17.102032    -19.273329    4.247047    -11.389587    17.750959    -3.663892    -8.490735    0.554748    38.039894    0.000000    0.000000    0.000000    -15.823432    0.943441    -6.584262    6.823684    27.929462    -2.541708    5.287033    -21.447628    -16.983465    0.000000    0.000000    0.000000    
25.703764    156.242783    -35.765545    1.280993    -0.756384    -44.540077    0.169803    -1.333606    0.072046    2.415303    1.817322    -0.015053    16.156284    -2.076286    15.449069    -8.992259    9.433668    12.847431    10.312315    0.742719    -19.505459    -11.258944    -18.138948    -45.126141    14.065162    -39.064362    -20.798391    -27.859564    -27.336546    -43.809986    -2.121514    4.963588    -2.171987    36.920364    7.420655    68.890396    -10.154711    -33.474327    70.014595    19.896753    -22.462160    29.835997    17.106913    -19.261179    4.262158    -11.389597    17.757933    -3.685797    -8.486581    0.546145    38.045769    0.000000    0.000000    0.000000    -15.827487    0.950392    -6.581365    6.826945    27.923599    -2.546717    5.272388    -21.453718    -16.965748    0.000000    0.000000    0.000000    
25.678339    156.239883    -35.759758    1.290367    -0.762693    -44.549843    0.168334    -1.341348    0.092158    2.417406    1.815982    -0.011104    16.138037    -2.095932    15.437588    -8.962065    9.451954    12.838898    10.302965    0.768031    -19.519829    -11.223812    -18.135624    -45.121983    14.079500    -39.068157    -20.799368    -27.888142    -27.321735    -43.831902    -2.170521    4.962209    -2.108833    36.931667    7.424582    69.055969    -9.429497    -33.112099    71.272644    19.458004    -22.530514    29.676025    17.105850    -19.259790    4.278959    -11.389205    17.779751    -3.704060    -8.495439    0.525421    38.060284    0.000000    0.000000    0.000000    -15.834012    0.954086    -6.570489    6.828262    27.924730    -2.560575    5.291922    -21.471418    -16.958263    0.000000    0.000000    0.000000    
